<svg xmlns="http://www.w3.org/2000/svg" viewBox="0 0 32 32"><path fill="#fff" d="M16.01 3.25c-6.98 0-12.66 5.58-12.66 12.45 0 2.3.65 4.55 1.88 6.5L3.25 28.75l6.75-1.93a12.83 12.83 0 0 0 6.01 1.51c6.98 0 12.66-5.58 12.66-12.45S22.99 3.25 16.01 3.25Zm0 22.91c-1.84 0-3.64-.49-5.22-1.42l-.43-.25-4.01 1.15 1.17-3.88-.28-.45a10.22 10.22 0 0 1-1.64-5.61c0-5.68 4.67-10.29 10.41-10.29s10.41 4.61 10.41 10.29-4.67 10.46-10.41 10.46Z"/><path fill="#fff" d="M21.96 18.6c-.33-.17-1.96-.96-2.26-1.07-.3-.11-.52-.17-.74.17-.22.33-.85 1.07-1.04 1.29-.19.22-.38.25-.71.08-.33-.17-1.39-.51-2.65-1.63-.98-.87-1.64-1.95-1.83-2.28-.19-.33-.02-.51.14-.68.15-.15.33-.38.49-.57.16-.19.22-.33.33-.55.11-.22.05-.41-.03-.57-.08-.17-.74-1.78-1.01-2.44-.27-.64-.54-.55-.74-.56h-.63c-.22 0-.57.08-.87.41-.3.33-1.15 1.12-1.15 2.73 0 1.61 1.18 3.16 1.34 3.38.16.22 2.32 3.53 5.62 4.95.79.34 1.4.54 1.88.69.79.25 1.5.22 2.07.13.63-.09 1.96-.8 2.23-1.57.27-.77.27-1.43.19-1.57-.08-.14-.3-.22-.63-.39Z"/></svg>